<?xml version="1.0" encoding="utf-8"?>

<svg version="1.1" id="Calque_1" xmlns="http://www.w3.org/2000/svg" xmlns:xlink="http://www.w3.org/1999/xlink" x="0px" y="0px" viewBox="0 0 1060.6 461.1" style="enable-background:new 0 0 1060.6 461.1;" xml:space="preserve">

<g>
&#x9;<path class="st0" d="M164.2,311.2v85.1c11.2,0,19.7-3,25.3-9.2c5.6-6.1,8.4-13.9,8.4-23.4c0-11.3-4.4-21.3-13.2-30l17-19.9&#xA;&#x9;&#x9;c7.9,6.8,13.5,14.4,16.9,22.8c3.4,8.5,5.1,17.3,5.1,26.5c0,14-4.5,27.7-13.6,40.8c-9.1,13.2-27.7,19.8-55.8,19.8&#xA;&#x9;&#x9;c-26.6,0-45-6.1-55.2-18.2s-15.3-24.9-15.3-38.1c0-15,5.2-28.1,15.6-39.4s24.4-16.8,42.1-16.8L164.2,311.2L164.2,311.2z&#xA;&#x9;&#x9; M141.6,396.3v-57.7c-10.3,0.4-18.1,3.3-23.6,8.7s-8.2,12.1-8.2,20.1c0,8.2,2.7,15,8.2,20.3C123.4,393.2,131.3,396,141.6,396.3z"></path>
&#x9;<path class="st0" d="M222.1,198.7h-14.2c10.5,9.6,15.8,21.3,15.8,35.3c0,8.4-1.6,15.7-4.9,21.7c-3.3,6.1-7.5,11-12.7,14.9&#xA;&#x9;&#x9;c-4.8,3.9-10.6,6.5-17.2,7.8c-6.6,1.3-18.4,2-35.2,2c-16.7,0-28.3-0.7-34.8-2c-6.5-1.3-12.3-3.9-17.2-7.8&#xA;&#x9;&#x9;c-5.1-3.9-9.3-8.8-12.7-14.9s-5.1-13.3-5.1-21.7c0-7,1.5-13.4,4.5-19.1c3-5.7,6.9-11.1,11.7-16.2H30.3v-27.5h191.8V198.7z&#xA;&#x9;&#x9; M111.4,225.5c0,13,4.4,20.8,13.3,23.4c8.9,2.6,18.5,3.9,29,3.9c10.7,0,20.5-1.3,29.4-3.9c8.9-2.6,13.3-10.4,13.3-23.4&#xA;&#x9;&#x9;c0-12.7-4.6-20.4-13.8-23s-18.8-3.9-28.8-3.9c-9.7,0-19.2,1.3-28.4,3.9C116,205.1,111.4,212.8,111.4,225.5z"></path>
&#x9;<path class="st0" d="M176.3,135H85.5v-27.5H167c9.3,0,16.5-2.6,21.7-7.7c5.1-5.1,7.7-11.6,7.7-19.5c0-7.6-2.6-14-7.7-19.2&#xA;&#x9;&#x9;c-5.1-5.1-12.4-7.7-21.7-7.7H85.5V25.8h136.7v27.5h-14.5v0.5c10.7,8.5,16.1,20.3,16.1,35.3c0,10.8-4,21.1-12.1,31&#xA;&#x9;&#x9;C203.6,130.1,191.9,135,176.3,135z"></path>
</g>
<path class="st1" d="M810.2,336.8c-1.7,0-2.6-0.8-2.6-2.5V29.7c0-1.7,0.9-2.5,2.6-2.5h120.5c30.5,0,53.9,8,70.2,24&#xA;&#x9;c16.2,15.7,24.3,35.9,24.3,60.4c0,13.5-3.2,25.9-9.5,37.4c-5.8,10.8-16.5,20.1-32.3,28.1c14.6,4.5,25.9,13.2,33.8,26.1&#xA;&#x9;c4.2,7.1,7.4,14.4,9.6,21.8c2.2,7.4,3.4,15.1,3.4,23.1c0,27.1-8.9,48.7-26.7,64.8c-17.6,16-38.4,24-62.2,24H810.2z M859.9,73.3v82.3&#xA;&#x9;h65.7c16.3,0,28.3-4,35.8-11.9c7.8-7.8,11.7-17.5,11.7-29.1c0-11.5-3.9-21.1-11.7-28.9c-7.8-8.2-19.7-12.3-35.8-12.3L859.9,73.3&#xA;&#x9;L859.9,73.3z M859.9,201.7v86.7h70c16.3,0,28.5-4.3,36.4-13c7.8-8.6,11.7-18.8,11.7-30.4c0-11.3-3.9-21.4-11.7-30.2&#xA;&#x9;c-7.5-8.8-19.7-13.2-36.4-13.2L859.9,201.7L859.9,201.7z"></path>
<g>
&#x9;<path class="st1" d="M633.3,121.9l25.9-76L653,29c-0.2-0.4-0.5-0.8-1-1.2c-0.5-0.4-1-0.5-1.4-0.5h-38.4c-1.2,0-1.9,0.6-2.2,1.7&#xA;&#x9;&#x9;L497.5,333.8c-0.3,0.8-0.2,1.6,0.2,2.3c0.4,0.7,1.1,1.1,2.1,1.1h57.8c0.4,0,0.9-0.2,1.4-0.5c0.5-0.3,0.8-0.7,1-1.2&#xA;&#x9;&#x9;c2.2-6.1,4.3-12.1,6.4-18l17.4-49.1l16.3-48.8L633.3,121.9z"></path>
&#x9;
&#x9;&#x9;<linearGradient id="SVGID_1_" gradientUnits="userSpaceOnUse" x1="633.4706" y1="423.7975" x2="739.2939" y2="133.0506" gradientTransform="matrix(1 0 0 -1 0 479.068)">
&#x9;&#x9;<stop offset="0" style="stop-color:#4B9196"></stop>
&#x9;&#x9;<stop offset="1" style="stop-color:#7EC0C8"></stop>
&#x9;</linearGradient>
&#x9;<path class="st2" d="M765.2,333.8l-106-287.9l-25.9,76l71.7,213.6c0.3,1.1,1,1.7,2.2,1.7h55.9c0.9,0,1.5-0.3,1.9-1.1&#xA;&#x9;&#x9;S765.5,334.6,765.2,333.8z"></path>
&#x9;<path class="st3" d="M540.7,213c-7.4,0-13.4,6-13.4,13.4c0,7.4,6,13.4,13.4,13.4s13.4-6,13.4-13.4S548.1,213,540.7,213z"></path>
&#x9;<path class="st3" d="M573.4,239.3c-8.3,0-15.1,6.8-15.1,15.1s6.8,15.1,15.1,15.1s15.1-6.8,15.1-15.1S581.8,239.3,573.4,239.3z"></path>
&#x9;<circle class="st3" cx="628.7" cy="264.3" r="18.8"></circle>
&#x9;<path class="st3" d="M669.6,228.6c-9,7.7-10,21.2-2.3,30.2c3.7,4.3,8.9,7,14.6,7.4c0.6,0,1.1,0.1,1.7,0.1c5.1,0,10-1.8,13.9-5.2&#xA;&#x9;&#x9;c9-7.7,10-21.2,2.3-30.2C692.1,222,678.6,220.9,669.6,228.6z"></path>
&#x9;<path class="st3" d="M724.2,169.9c-12.9,0-23.4,10.5-23.4,23.4s10.5,23.4,23.4,23.4s23.4-10.5,23.4-23.4S737,169.9,724.2,169.9z"></path>
</g>
<path class="st1" d="M284.9,336.8c-1.7,0-2.6-0.8-2.6-2.5V29.7c0-1.7,0.9-2.5,2.6-2.5h50.4c1.7,0,2.5,0.9,2.5,2.5v254.4h141.7&#xA;&#x9;c1.7,0,2.5,0.8,2.5,2.5v47.7c0,1.7-0.9,2.5-2.5,2.5H284.9z"></path>
<g class="st4">
&#x9;<path class="st5" d="M397.8,368.1h17.8c2.2,0,4.3,0.3,6.2,0.8c1.9,0.5,3.6,1.3,4.9,2.4c1.4,1,2.5,2.4,3.3,4&#xA;&#x9;&#x9;c0.8,1.6,1.2,3.5,1.2,5.7c0,3-0.8,5.4-2.5,7.2c-1.6,1.9-3.8,3.2-6.4,4.1v0.1c1.5,0.1,3,0.5,4.4,1.2c1.4,0.7,2.5,1.6,3.5,2.8&#xA;&#x9;&#x9;c1,1.1,1.8,2.5,2.4,4c0.6,1.5,0.9,3.1,0.9,4.9c0,2.3-0.5,4.4-1.4,6.1c-0.9,1.8-2.2,3.3-3.9,4.5c-1.6,1.2-3.6,2.1-5.7,2.8&#xA;&#x9;&#x9;c-2.2,0.6-4.5,0.9-7,0.9h-17.6V368.1z M404.8,389.4h9.5c1.3,0,2.5-0.1,3.7-0.4c1.2-0.3,2.2-0.7,3-1.3c0.9-0.6,1.6-1.4,2.1-2.4&#xA;&#x9;&#x9;c0.5-1,0.8-2.2,0.8-3.6c0-2-0.7-3.8-2-5.3c-1.3-1.5-3.4-2.2-6.2-2.2h-11V389.4z M404.8,413.3H415c1.1,0,2.2-0.1,3.5-0.3&#xA;&#x9;&#x9;c1.3-0.2,2.5-0.7,3.6-1.3c1.1-0.7,2.1-1.5,2.8-2.6c0.8-1.1,1.2-2.6,1.2-4.4c0-3-1-5.3-3-6.9c-2-1.5-4.7-2.3-8.1-2.3h-10.3V413.3z"></path>
&#x9;<path class="st5" d="M437.8,385h7.5l10.2,26.8h0.1l9.8-26.8h7l-16.3,41.8c-0.6,1.5-1.2,2.9-1.8,4.1c-0.6,1.2-1.4,2.3-2.2,3.2&#xA;&#x9;&#x9;c-0.9,0.9-1.9,1.5-3.1,2c-1.2,0.5-2.7,0.7-4.5,0.7c-1,0-1.9-0.1-2.9-0.2c-1-0.1-1.9-0.4-2.9-0.8l0.8-5.9c1.3,0.5,2.6,0.8,3.9,0.8&#xA;&#x9;&#x9;c1,0,1.9-0.1,2.6-0.4c0.7-0.3,1.3-0.7,1.8-1.2c0.5-0.5,0.9-1.1,1.3-1.8c0.3-0.7,0.7-1.5,1-2.3l2.1-5.4L437.8,385z"></path>
&#x9;<path class="st5" d="M510.7,374.6h-16.5v-6.5h40v6.5h-16.5v44.8h-7V374.6z"></path>
&#x9;<path class="st5" d="M536.8,404.6c0,1.5,0.3,2.9,1,4.1c0.7,1.2,1.5,2.3,2.6,3.2c1.1,0.9,2.3,1.5,3.7,2c1.4,0.5,2.9,0.7,4.4,0.7&#xA;&#x9;&#x9;c2,0,3.8-0.5,5.3-1.4c1.5-0.9,2.9-2.2,4.1-3.7l4.9,3.8c-3.6,4.7-8.7,7-15.2,7c-2.7,0-5.2-0.5-7.4-1.4c-2.2-0.9-4.1-2.2-5.6-3.8&#xA;&#x9;&#x9;c-1.5-1.6-2.7-3.5-3.5-5.7c-0.8-2.2-1.2-4.6-1.2-7.1c0-2.6,0.4-4.9,1.3-7.1c0.9-2.2,2.1-4.1,3.7-5.7c1.6-1.6,3.4-2.9,5.6-3.8&#xA;&#x9;&#x9;c2.2-0.9,4.5-1.4,7.1-1.4c3,0,5.6,0.5,7.7,1.6c2.1,1.1,3.8,2.5,5.2,4.2c1.4,1.7,2.3,3.7,2.9,5.8c0.6,2.2,0.9,4.3,0.9,6.6v2.3H536.8&#xA;&#x9;&#x9;z M557.4,399.4c0-1.5-0.3-2.8-0.7-4c-0.4-1.2-1-2.3-1.8-3.2c-0.8-0.9-1.8-1.6-3.1-2.1s-2.7-0.8-4.3-0.8c-1.6,0-3.1,0.3-4.4,0.9&#xA;&#x9;&#x9;c-1.3,0.6-2.5,1.4-3.4,2.4c-0.9,1-1.6,2-2.1,3.2c-0.5,1.2-0.8,2.4-0.8,3.5H557.4z"></path>
&#x9;<path class="st5" d="M596.8,394.2c-1.2-1.3-2.5-2.2-3.8-2.9c-1.3-0.7-2.9-1-4.8-1c-1.8,0-3.3,0.3-4.7,1c-1.3,0.7-2.4,1.5-3.3,2.7&#xA;&#x9;&#x9;c-0.9,1.1-1.6,2.4-2,3.9c-0.5,1.5-0.7,3-0.7,4.6c0,1.6,0.3,3.1,0.8,4.5c0.5,1.4,1.3,2.7,2.2,3.7c1,1.1,2.1,1.9,3.5,2.5&#xA;&#x9;&#x9;c1.4,0.6,2.9,0.9,4.6,0.9c1.8,0,3.4-0.3,4.7-1c1.3-0.7,2.5-1.6,3.6-2.9l4.6,4.6c-1.7,1.9-3.7,3.2-5.9,4.1c-2.2,0.8-4.6,1.2-7.1,1.2&#xA;&#x9;&#x9;c-2.7,0-5.1-0.4-7.3-1.3c-2.2-0.9-4.1-2.1-5.7-3.7c-1.6-1.6-2.8-3.5-3.7-5.7c-0.9-2.2-1.3-4.6-1.3-7.3c0-2.7,0.4-5.1,1.3-7.3&#xA;&#x9;&#x9;c0.9-2.2,2.1-4.1,3.7-5.7c1.6-1.6,3.5-2.8,5.7-3.7c2.2-0.9,4.7-1.3,7.4-1.3c2.5,0,4.9,0.4,7.2,1.3c2.3,0.9,4.3,2.3,6,4.1&#xA;&#x9;&#x9;L596.8,394.2z"></path>
&#x9;<path class="st5" d="M607.2,364.6h6.5v25.8h0.1c0.8-1.8,2.2-3.3,4.3-4.5c2-1.1,4.4-1.7,7-1.7c1.6,0,3.2,0.3,4.8,0.8s2.9,1.3,4,2.4&#xA;&#x9;&#x9;c1.1,1.1,2,2.4,2.7,4.1c0.7,1.7,1,3.6,1,5.9v22.1h-6.5v-20.3c0-1.6-0.2-3-0.7-4.1c-0.4-1.1-1-2.1-1.7-2.8c-0.7-0.7-1.6-1.2-2.5-1.5&#xA;&#x9;&#x9;c-0.9-0.3-1.9-0.5-2.9-0.5c-1.4,0-2.6,0.2-3.8,0.7c-1.2,0.4-2.2,1.1-3,2.1c-0.9,0.9-1.5,2.1-2,3.6c-0.5,1.5-0.7,3.2-0.7,5.2v17.7&#xA;&#x9;&#x9;h-6.5V364.6z"></path>
&#x9;<path class="st5" d="M647.5,385h6.5v5.3h0.1c0.8-1.8,2.2-3.3,4.3-4.5c2-1.1,4.4-1.7,7-1.7c1.6,0,3.2,0.3,4.8,0.8s2.9,1.3,4,2.4&#xA;&#x9;&#x9;c1.1,1.1,2,2.4,2.7,4.1c0.7,1.7,1,3.6,1,5.9v22.1h-6.5v-20.3c0-1.6-0.2-3-0.7-4.1c-0.4-1.1-1-2.1-1.7-2.8c-0.7-0.7-1.6-1.2-2.5-1.5&#xA;&#x9;&#x9;c-0.9-0.3-1.9-0.5-2.9-0.5c-1.4,0-2.6,0.2-3.8,0.7c-1.2,0.4-2.2,1.1-3,2.1c-0.9,0.9-1.5,2.1-2,3.6c-0.5,1.5-0.7,3.2-0.7,5.2v17.7&#xA;&#x9;&#x9;h-6.5V385z"></path>
&#x9;<path class="st5" d="M686.2,402.2c0-2.5,0.5-4.9,1.4-7c0.9-2.2,2.2-4.1,3.9-5.7c1.6-1.6,3.6-2.9,5.8-3.9s4.6-1.4,7.2-1.4&#xA;&#x9;&#x9;c2.6,0,5,0.5,7.2,1.4c2.2,0.9,4.2,2.2,5.8,3.9c1.6,1.6,2.9,3.6,3.9,5.7c0.9,2.2,1.4,4.5,1.4,7c0,2.5-0.5,4.9-1.4,7.1&#xA;&#x9;&#x9;c-0.9,2.2-2.2,4.1-3.9,5.7c-1.6,1.6-3.6,2.9-5.8,3.8c-2.2,0.9-4.6,1.4-7.2,1.4c-2.6,0-5-0.5-7.2-1.4s-4.2-2.2-5.8-3.8&#xA;&#x9;&#x9;c-1.6-1.6-2.9-3.5-3.9-5.7C686.7,407.1,686.2,404.7,686.2,402.2z M693.2,402.2c0,1.7,0.3,3.3,0.8,4.8c0.5,1.5,1.3,2.7,2.2,3.8&#xA;&#x9;&#x9;c1,1,2.2,1.9,3.6,2.5c1.4,0.6,3,0.9,4.7,0.9c1.7,0,3.3-0.3,4.7-0.9c1.4-0.6,2.6-1.4,3.6-2.5c1-1,1.7-2.3,2.2-3.8&#xA;&#x9;&#x9;c0.5-1.5,0.8-3.1,0.8-4.8c0-1.7-0.3-3.3-0.8-4.8c-0.5-1.5-1.3-2.7-2.2-3.8c-1-1-2.2-1.9-3.6-2.5c-1.4-0.6-3-0.9-4.7-0.9&#xA;&#x9;&#x9;c-1.7,0-3.3,0.3-4.7,0.9c-1.4,0.6-2.6,1.4-3.6,2.5c-1,1-1.7,2.3-2.2,3.8S693.2,400.5,693.2,402.2z"></path>
&#x9;<path class="st5" d="M733.5,390.7h-7.4V385h7.4v-7.7c0-4.6,0.9-8,2.6-10.3c1.8-2.2,4.8-3.4,9.1-3.4c0.7,0,1.5,0,2.3,0.1&#xA;&#x9;&#x9;c0.8,0,1.7,0.2,2.6,0.4l-0.7,5.8c-0.6-0.2-1.2-0.4-1.8-0.5c-0.6-0.1-1.2-0.1-1.9-0.1c-1.2,0-2.2,0.2-2.9,0.5&#xA;&#x9;&#x9;c-0.7,0.4-1.3,0.9-1.7,1.6c-0.4,0.7-0.7,1.5-0.8,2.4c-0.1,0.9-0.2,2-0.2,3.2v7.9h7.8v5.7H740v28.7h-6.5V390.7z"></path>
&#x9;<path class="st5" d="M785.6,419.4H779v-5.3h-0.1c-0.8,1.8-2.2,3.3-4.3,4.5s-4.4,1.7-7,1.7c-1.7,0-3.3-0.3-4.8-0.8&#xA;&#x9;&#x9;c-1.5-0.5-2.8-1.3-4-2.4c-1.1-1.1-2-2.4-2.7-4.1c-0.7-1.7-1-3.6-1-5.9V385h6.5v20.3c0,1.6,0.2,3,0.7,4.1c0.4,1.1,1,2.1,1.7,2.8&#xA;&#x9;&#x9;c0.7,0.7,1.6,1.2,2.5,1.5c0.9,0.3,1.9,0.5,2.9,0.5c1.4,0,2.6-0.2,3.8-0.7c1.2-0.4,2.2-1.1,3-2.1c0.9-0.9,1.5-2.1,2-3.6&#xA;&#x9;&#x9;c0.5-1.5,0.7-3.2,0.7-5.2V385h6.5V419.4z"></path>
&#x9;<path class="st5" d="M813.9,390.7h-9.4v15.6c0,1,0,1.9,0.1,2.9c0,0.9,0.2,1.8,0.5,2.5s0.8,1.4,1.5,1.8c0.7,0.5,1.6,0.7,2.9,0.7&#xA;&#x9;&#x9;c0.8,0,1.6-0.1,2.4-0.2c0.8-0.1,1.6-0.4,2.2-0.8v5.9c-0.8,0.4-1.8,0.7-3,0.9c-1.2,0.2-2.2,0.3-2.9,0.3c-2.5,0-4.5-0.4-5.8-1.1&#xA;&#x9;&#x9;c-1.4-0.7-2.4-1.6-3-2.7c-0.7-1.1-1-2.4-1.2-3.7c-0.1-1.4-0.2-2.8-0.2-4.2v-17.9h-7.5V385h7.5v-9.6h6.5v9.6h9.4V390.7z"></path>
&#x9;<path class="st5" d="M852.8,419.4h-6.5v-5.3h-0.1c-0.8,1.8-2.2,3.3-4.3,4.5s-4.4,1.7-7,1.7c-1.7,0-3.3-0.3-4.8-0.8&#xA;&#x9;&#x9;c-1.5-0.5-2.8-1.3-4-2.4c-1.1-1.1-2-2.4-2.7-4.1c-0.7-1.7-1-3.6-1-5.9V385h6.5v20.3c0,1.6,0.2,3,0.7,4.1c0.4,1.1,1,2.1,1.7,2.8&#xA;&#x9;&#x9;c0.7,0.7,1.6,1.2,2.5,1.5c0.9,0.3,1.9,0.5,2.9,0.5c1.4,0,2.6-0.2,3.8-0.7c1.2-0.4,2.2-1.1,3-2.1c0.9-0.9,1.5-2.1,2-3.6&#xA;&#x9;&#x9;c0.5-1.5,0.7-3.2,0.7-5.2V385h6.5V419.4z"></path>
&#x9;<path class="st5" d="M862.6,385h6.5v5.3h0.1c0.4-0.9,1-1.8,1.7-2.5c0.7-0.7,1.5-1.4,2.4-1.9c0.9-0.5,1.9-1,2.9-1.3&#xA;&#x9;&#x9;c1.1-0.3,2.1-0.5,3.2-0.5c1.1,0,2,0.1,2.9,0.4l-0.3,7c-0.5-0.1-1.1-0.3-1.6-0.4c-0.5-0.1-1.1-0.1-1.6-0.1c-3.2,0-5.6,0.9-7.3,2.7&#xA;&#x9;&#x9;c-1.7,1.8-2.5,4.6-2.5,8.3v17.3h-6.5V385z"></path>
&#x9;<path class="st5" d="M922,374.6h-16.5v-6.5h40v6.5H929v44.8h-7V374.6z"></path>
&#x9;<path class="st5" d="M952.9,368.1h7v51.4h-7V368.1z"></path>
&#x9;<path class="st5" d="M1008.9,379.2c-1.5-1.9-3.3-3.3-5.5-4.4c-2.2-1-4.5-1.5-6.9-1.5c-2.9,0-5.5,0.5-7.9,1.6&#xA;&#x9;&#x9;c-2.3,1.1-4.4,2.6-6,4.5c-1.7,1.9-3,4.1-3.9,6.6c-0.9,2.5-1.4,5.3-1.4,8.2c0,2.7,0.4,5.3,1.3,7.7c0.9,2.4,2.1,4.5,3.8,6.4&#xA;&#x9;&#x9;c1.6,1.8,3.7,3.3,6,4.4c2.4,1.1,5.1,1.6,8.1,1.6c2.9,0,5.5-0.6,7.8-1.8c2.2-1.2,4.1-2.9,5.7-5.1l5.9,4.4c-0.4,0.5-1.1,1.3-2,2.3&#xA;&#x9;&#x9;c-1,1-2.2,2-3.8,3c-1.6,1-3.5,1.9-5.8,2.6c-2.2,0.7-4.8,1.1-7.8,1.1c-4.1,0-7.7-0.8-11-2.3s-6-3.6-8.3-6.1&#xA;&#x9;&#x9;c-2.3-2.5-4.1-5.4-5.3-8.5c-1.2-3.2-1.8-6.4-1.8-9.6c0-4,0.7-7.6,2-11s3.1-6.3,5.5-8.7c2.3-2.4,5.2-4.3,8.5-5.7&#xA;&#x9;&#x9;c3.3-1.4,6.9-2,10.9-2c3.4,0,6.7,0.7,10,2s5.9,3.3,8,6L1008.9,379.2z"></path>
</g>
</svg>